HIERARCHY
ROOT root
{
	OFFSET 0.000000 0.000000 0.000000
	CHANNELS 6 Xposition Yposition Zposition Zrotation Yrotation Xrotation
	JOINT lhip
	{
		OFFSET 0.058581 -0.082280 -0.017664
		CHANNELS 3 Zrotation Yrotation Xrotation
		JOINT lknee
		{
			OFFSET 0.043451 -0.386469 0.008037
			CHANNELS 3 Zrotation Yrotation Xrotation
			JOINT lankle
			{
				OFFSET -0.014790 -0.426874 -0.037428
				CHANNELS 3 Zrotation Yrotation Xrotation
				JOINT ltoe
				{
					OFFSET 0.041054 -0.060286 0.122042
					CHANNELS 3 Zrotation Yrotation Xrotation
					End Site
					{
						OFFSET 0.000000 0.000000 0.000000
					}
				}
			}
		}
	}
	JOINT rhip
	{
		OFFSET -0.060310 -0.090513 -0.013543
		CHANNELS 3 Zrotation Yrotation Xrotation
		JOINT rknee
		{
			OFFSET -0.043257 -0.383688 -0.004843
			CHANNELS 3 Zrotation Yrotation Xrotation
			JOINT rankle
			{
				OFFSET 0.019056 -0.420046 -0.034562
				CHANNELS 3 Zrotation Yrotation Xrotation
				JOINT rtoe
				{
					OFFSET -0.034840 -0.062106 0.130323
					CHANNELS 3 Zrotation Yrotation Xrotation
					End Site
					{
						OFFSET 0.000000 0.000000 0.000000
					}
				}
			}
		}
	}
	JOINT lowerback
	{
		OFFSET 0.004439 0.124404 -0.038385
		CHANNELS 3 Zrotation Yrotation Xrotation
		JOINT upperback
		{
			OFFSET 0.004488 0.137956 0.026820
			CHANNELS 3 Zrotation Yrotation Xrotation
			JOINT chest
			{
				OFFSET -0.002265 0.056032 0.002855
				CHANNELS 3 Zrotation Yrotation Xrotation
				JOINT lowerneck
				{
					OFFSET -0.013390 0.211636 -0.033468
					CHANNELS 3 Zrotation Yrotation Xrotation
					JOINT upperneck
					{
						OFFSET 0.010113 0.088937 0.050410
						CHANNELS 3 Zrotation Yrotation Xrotation
						End Site
						{
							OFFSET 0.000000 0.000000 0.000000
						}
					}
				}
				JOINT lclavicle
				{
					OFFSET 0.071702 0.114000 -0.018898
					CHANNELS 3 Zrotation Yrotation Xrotation
					JOINT lshoulder
					{
						OFFSET 0.122921 0.045205 -0.019046
						CHANNELS 3 Zrotation Yrotation Xrotation
						JOINT lelbow
						{
							OFFSET 0.255332 -0.015649 -0.022946
							CHANNELS 3 Zrotation Yrotation Xrotation
							JOINT lwrist
							{
								OFFSET 0.265709 0.012698 -0.007375
								CHANNELS 3 Zrotation Yrotation Xrotation
								End Site
								{
									OFFSET 0.000000 0.000000 0.000000
								}
							}
						}
					}
				}
				JOINT rclavicle
				{
					OFFSET -0.082954 0.112472 -0.023707
					CHANNELS 3 Zrotation Yrotation Xrotation
					JOINT rshoulder
					{
						OFFSET -0.113228 0.046853 -0.008472
						CHANNELS 3 Zrotation Yrotation Xrotation
						JOINT relbow
						{
							OFFSET -0.260127 -0.014369 -0.031269
							CHANNELS 3 Zrotation Yrotation Xrotation
							JOINT rwrist
							{
								OFFSET -0.269108 0.006794 -0.006027
								CHANNELS 3 Zrotation Yrotation Xrotation
								End Site
								{
									OFFSET 0.000000 0.000000 0.000000
								}
							}
						}
					}
				}
			}
		}
	}
}
MOTION
Frames: 13
Frame Time: 0.033333
0.987601 0.754557 0.988812 -85.947916 4.613885 86.790126 3.474572 0.284367 7.184604 -2.298234 -13.170036 1.149994 4.773165 8.598108 -16.682607 0.000000 -0.000000 0.000000 3.095346 -0.896951 3.719520 3.062441 4.733991 6.878219 3.216754 -3.755187 -11.136375 0.000000 -0.000000 0.000000 -1.102860 0.390393 4.493532 1.651520 -3.229927 1.601927 1.153552 -2.671254 4.196833 4.164042 -1.039298 -8.850545 4.524229 -6.279900 -4.611228 -28.936309 2.563053 0.568812 -57.888524 -6.691226 6.236092 9.873636 -17.829922 -0.996745 -1.710661 -0.866655 -7.665351 26.713949 -0.948519 -1.782532 59.753201 2.346908 11.678359 -13.156205 20.653735 -2.997032 6.131610 -0.850305 -6.122240 
0.988081 0.754363 0.988438 -86.048861 4.648844 86.756365 3.443274 -0.049603 7.383674 -2.283527 -12.922451 0.822087 4.815529 8.803874 -16.477793 0.000000 -0.000000 0.000000 3.055461 -0.562732 3.601936 3.248303 4.535344 6.935855 2.910336 -3.998548 -10.950343 0.000000 -0.000000 0.000000 -1.136381 0.563434 4.566487 1.837636 -3.204821 2.172915 1.113799 -2.573817 3.602095 4.600426 -1.244428 -9.152664 4.385147 -6.390841 -4.811702 -29.183787 2.344199 0.799946 -58.275555 -6.741606 6.195724 10.181800 -17.340194 0.883552 -9.038331 -0.990414 -10.022291 26.568153 -1.027025 -1.717470 60.074714 2.461394 11.723952 -13.838594 20.624188 -2.845497 8.279934 -1.183924 -6.557108 
0.988296 0.754503 0.988065 -85.873671 4.773045 86.709140 3.686004 0.479720 7.111778 -2.340240 -13.153942 1.353158 4.509023 8.170361 -16.594757 0.000000 -0.000000 0.000000 3.163005 -0.874425 3.746397 3.310815 4.726691 6.821489 3.063874 -3.893039 -11.006183 0.000000 -0.000000 0.000000 -1.231686 0.768468 4.555617 2.057362 -3.209283 2.363609 1.155227 -2.612177 4.030037 5.080520 -0.735278 -10.547703 4.161543 -7.158968 -4.118190 -29.292130 1.724048 0.465674 -58.234170 -6.218678 8.191768 8.967516 -16.387442 5.521000 -3.334981 -1.388558 -3.318963 26.762687 -0.537327 -2.267025 59.776733 1.966353 11.777426 -13.617576 20.628505 -3.273202 5.970147 -0.751239 -6.572929 
0.990189 0.754822 0.987824 -86.460536 4.655960 86.956213 3.530014 0.412699 6.764491 -2.388154 -12.835587 1.302760 4.635811 8.522560 -16.533249 0.000000 -0.000000 0.000000 3.058574 -0.338779 2.915569 3.352331 4.599824 7.493355 3.119915 -3.773003 -11.106178 0.000000 -0.000000 0.000000 -1.343057 0.990591 4.590447 2.064868 -2.959281 2.119448 1.182463 -2.517848 4.038521 5.097630 -0.757159 -10.636231 4.243127 -7.379730 -4.100990 -29.175577 1.734297 0.369380 -58.257735 -6.308744 8.261103 8.912847 -16.599367 5.219093 -3.216557 -1.163846 -3.348717 26.801084 -0.439703 -2.315380 59.792707 2.073559 11.884896 -13.658930 20.532246 -3.446366 5.980459 -0.750674 -6.551567 
0.990038 0.754779 0.987833 -86.339227 4.636032 86.924125 3.502212 0.383225 6.882795 -2.329704 -12.890214 1.165561 4.554234 8.441529 -16.456783 0.000000 -0.000000 0.000000 3.043728 -0.423848 3.082994 3.276096 4.546023 7.304819 3.180031 -3.763593 -11.049937 0.000000 -0.000000 0.000000 -1.343771 0.987270 4.572898 2.055592 -3.011051 2.177671 1.187979 -2.531374 4.027733 5.130268 -0.870472 -10.669321 4.309724 -7.500622 -4.095244 -29.152982 1.694779 0.388798 -58.298328 -6.349796 8.335060 8.911501 -16.791349 5.267682 -3.086225 -1.105180 -3.161593 26.876504 -0.426586 -2.379609 59.703535 1.998734 11.862417 -13.535919 20.652104 -3.503733 6.028249 -0.759610 -6.530535 
0.990974 0.755047 0.987754 -86.538650 4.554205 87.032766 3.402158 0.390313 6.643201 -2.361170 -12.684633 1.299158 4.574687 8.486768 -16.476699 0.000000 -0.000000 0.000000 2.937570 -0.109694 2.814930 3.359532 4.477173 7.468019 3.295134 -3.810316 -11.003392 0.000000 -0.000000 0.000000 -1.385902 1.073541 4.503569 2.060825 -2.942127 2.186473 1.131247 -2.514412 4.088147 5.274011 -0.942216 -10.836185 4.332787 -7.719596 -4.060046 -29.201133 1.771784 0.208879 -58.192446 -6.466484 8.458359 8.771735 -16.989028 5.385255 -3.339981 -1.291058 -2.977018 27.004317 -0.472913 -2.537773 59.687517 2.103553 12.017042 -13.472821 20.758246 -3.607963 6.113076 -0.695840 -6.533495 
0.991356 0.755340 0.987591 -86.462687 4.496070 87.006689 3.388201 0.355903 6.648743 -2.387766 -12.719031 1.258638 4.587833 8.504413 -16.380415 0.000000 -0.000000 0.000000 2.947795 -0.047879 2.800452 3.268139 4.388446 7.535361 3.300204 -3.892196 -11.009038 0.000000 -0.000000 0.000000 -1.471826 1.094060 4.478511 2.089799 -2.978206 2.298272 1.165197 -2.559147 4.111635 5.260615 -1.084142 -10.814419 4.466222 -7.827856 -4.272905 -29.164310 1.650800 0.230994 -58.307775 -6.624021 8.502988 8.803163 -17.294582 5.248118 -3.177763 -1.267635 -3.191220 26.984252 -0.371898 -2.486586 59.792403 2.138348 12.077836 -13.582870 21.039422 -3.602626 6.099537 -0.648953 -6.605824 
0.991911 0.755790 0.987634 -86.509959 4.488806 87.058575 3.417150 0.344466 6.543479 -2.425131 -12.702041 1.307473 4.594721 8.519522 -16.398763 0.000000 -0.000000 0.000000 2.989538 -0.110548 2.567317 3.217382 4.421227 7.785254 3.312529 -3.787927 -11.035422 0.000000 -0.000000 0.000000 -1.500937 1.069822 4.497202 2.109630 -2.941436 2.153963 1.178006 -2.519059 4.135388 5.265846 -1.055906 -10.752473 4.537203 -7.972347 -4.138693 -29.190025 1.708048 0.121845 -58.387916 -6.692963 8.617699 8.712772 -17.658842 5.272093 -2.984080 -1.196354 -3.043624 27.124094 -0.391309 -2.534277 59.799948 2.138554 12.194069 -13.540286 21.241743 -3.525991 5.970753 -0.616680 -6.475243 
0.992135 0.755923 0.987782 -86.352870 4.453311 87.040900 3.373338 0.220356 6.603835 -2.387856 -12.744878 1.157323 4.608455 8.589870 -16.282295 0.000000 -0.000000 0.000000 2.960380 -0.149041 2.600596 3.246439 4.375738 7.771471 3.291840 -3.844599 -11.123408 0.000000 -0.000000 0.000000 -1.542370 1.050629 4.441032 2.113429 -3.017312 2.175968 1.197853 -2.517760 4.101272 5.296901 -1.074712 -10.564928 4.613172 -8.011162 -4.056520 -29.185625 1.582314 0.138414 -58.469335 -6.748298 8.750416 8.611575 -17.886667 5.362898 -3.173602 -1.159774 -3.152006 27.181957 -0.353190 -2.544182 59.844496 2.086897 12.255761 -13.698719 21.346199 -3.443490 6.129463 -0.798205 -6.411215 
0.992143 0.756426 0.987851 -86.198513 4.472872 86.945810 3.407081 0.156108 6.683076 -2.322782 -12.761885 1.201474 4.611435 8.479217 -16.369257 0.000000 -0.000000 0.000000 3.020361 -0.209916 2.824720 3.210241 4.376298 7.568281 3.253884 -3.906592 -10.972302 0.000000 -0.000000 0.000000 -1.567460 1.049859 4.448831 2.171921 -3.085950 2.235747 1.263907 -2.528573 4.047498 5.335117 -1.274858 -10.514839 4.678028 -8.086251 -4.171399 -29.387928 1.494023 0.254076 -58.528145 -6.911449 8.788186 8.740047 -18.309516 5.278798 -3.411137 -1.396918 -3.477641 27.211173 -0.296447 -2.522358 59.857235 2.075223 12.272325 -13.681059 21.537052 -3.420802 6.119216 -0.796334 -6.436417 
0.991912 0.756542 0.987872 -85.960237 4.567683 86.795225 3.589273 0.188034 6.780697 -2.421997 -13.030852 1.321496 4.485545 8.339030 -16.407547 0.000000 -0.000000 0.000000 3.157780 -0.531599 3.022726 3.165100 4.419167 7.586637 3.236033 -3.777347 -11.198996 0.000000 -0.000000 0.000000 -1.431500 0.924961 4.529434 2.182418 -3.166803 2.260045 1.263805 -2.525750 4.021720 5.303024 -1.424531 -10.468783 4.762551 -8.220657 -4.317587 -29.376875 1.475078 0.253915 -58.689869 -6.881711 8.912531 8.656581 -18.807279 5.403846 -2.917393 -1.328945 -3.366099 27.119412 -0.239966 -2.629115 59.951079 1.966041 12.155333 -13.586324 21.568050 -3.316057 6.077106 -0.740746 -6.502638 
0.992058 0.756816 0.987920 -85.954503 4.582668 86.719644 3.583596 0.162206 6.861714 -2.349249 -12.976485 1.340837 4.462024 8.380436 -16.433660 0.000000 -0.000000 0.000000 3.172850 -0.575924 3.063081 3.230844 4.380111 7.614297 3.144444 -3.742948 -11.165361 0.000000 -0.000000 0.000000 -1.397010 0.969909 4.504146 2.203048 -3.145512 2.334731 1.266577 -2.538932 4.044690 5.341227 -1.497328 -10.317811 4.859893 -8.241407 -4.398447 -29.437805 1.435620 0.205839 -58.770262 -6.980865 8.931092 8.611422 -19.147552 5.429283 -3.239293 -1.249452 -3.451596 27.103672 -0.258001 -2.690023 59.956440 1.993150 12.080173 -13.564158 21.628349 -3.314485 6.221109 -0.749770 -6.397403 
0.992281 0.757068 0.987940 -85.929092 4.560799 86.600174 3.533901 0.123917 6.977268 -2.303038 -13.061389 1.344771 4.486439 8.506914 -16.472943 0.000000 -0.000000 0.000000 3.161406 -0.536151 3.203032 3.232546 4.375692 7.602642 3.151400 -3.858756 -11.171773 0.000000 -0.000000 0.000000 -1.401959 0.956974 4.491036 2.190917 -3.142501 2.446458 1.237875 -2.524637 4.140691 5.485308 -1.723632 -10.442860 4.948402 -8.461334 -4.409932 -29.393754 1.392679 0.115024 -58.856827 -7.025291 9.098081 8.508161 -19.491522 5.638161 -3.084879 -1.136340 -3.361888 27.103009 -0.220025 -2.818933 59.919634 1.990877 12.091126 -13.450941 21.740268 -3.360325 6.165337 -0.828463 -6.369064 
